<?xml version="1.0" encoding="UTF-8"?>
<svg id="Layer_2" data-name="Layer 2" xmlns="http://www.w3.org/2000/svg" viewBox="0 0 31.67 39.88">
  <defs>
    <style>
      .cls-1 {
        fill: none;
        stroke: #fff;
        stroke-linejoin: round;
        stroke-width: 1.75px;
      }

      .cls-2 {
        fill: red;
      }
    </style>
  </defs>
  <g id="Layer_4" data-name="Layer 4">
    <path class="cls-1" d="M10.14,35.88s-2.14-3.73-3.32-5.49c-2.05-3.04-1.92-5.27-3.43-7.95S.8,18.38,.88,17.33c.1-1.32,2.16-1.94,3.13-.99,4.7,4.61,4.7,7.44,4.81,7.97s-1.01-16.39-.99-17.89c.02-1.38,1.04-2.27,2-2.21s1.95,1.25,1.94,1.94,1.29,11.53,1.29,11.53c0,0-.03-14.14,.03-15.09,.04-.63,.87-1.48,1.89-1.68,.94-.18,2.17,.88,2.21,2,.02,.69,.28,14.8,.28,14.8,0,0,.55-12.89,.67-14.11,.07-.73,.77-1.64,2.02-1.65,.96,0,1.64,.77,1.79,1.35s.1,15.12,.1,15.12c0,0,.92-7.83,1.02-8.68,.12-1.09,1.08-1.86,2.21-1.79s1.56,.89,1.7,1.66c.09,.46-.53,6.52-.72,11.12"/>
    <circle class="cls-2" cx="26.17" cy="34.38" r="5.5"/>
  </g>
</svg>