<?xml version="1.0" encoding="UTF-8"?>
<svg id="Layer_2" data-name="Layer 2" xmlns="http://www.w3.org/2000/svg" viewBox="0 0 27.9 28.85">
  <defs>
    <style>
      .cls-1 {
        fill: none;
        stroke: #161e27;
        stroke-miterlimit: 10;
        stroke-width: 1.9px;
      }
    </style>
  </defs>
  <g id="GUI">
    <g>
      <path class="cls-1" d="M8.83,15.42c-3.64-.67-6.55-4.71-7.27-8.77-.19-1.08-.24-2.22-.31-2.47l3.95,.02M22.12,.95c.24,0,.5,0,.73,.05,.6,.16,.68,.59,.32,1.05-.23,.29-.32,.66-.47,1.19-.93,3.35-1.57,9.05-3.64,12.11-1.21,1.79-2.52,2.87-2.65,3.01-.1,.11-.24,.25-.25,.37-.02,.7-.01,1.39-.01,2.12,0,.32,.16,.62,.43,.81,.89,.62,2.06,2.82,2.33,4.3,.06,.35,.39,.61,.77,.62,.11,0,.21,0,.3,0v1.22l-12.08,.06v-1.22c.09,0,.19,0,.3,0,.39,0,.71-.27,.77-.62,.27-1.49,1.44-3.69,2.33-4.3,.28-.19,.43-.49,.43-.81,0-.73,0-1.43-.01-2.12,0-.13-.15-.26-.25-.37-.12-.14-1.43-1.21-2.65-3.01-2.07-3.06-2.71-8.76-3.64-12.11-.15-.53-.24-.9-.47-1.19-.37-.46-.28-.89,.32-1.05l17.08-.12Z"/>
      <path class="cls-1" d="M22.65,4.21l4-.08c-.07,.24-.11,1.39-.31,2.47-.73,4.06-3.64,8.09-7.27,8.77"/>
    </g>
  </g>
</svg>