<?xml version="1.0" encoding="UTF-8"?>
<svg id="Layer_2" data-name="Layer 2" xmlns="http://www.w3.org/2000/svg" xmlns:xlink="http://www.w3.org/1999/xlink" viewBox="0 0 147.08 258.22">
  <defs>
    <style>
      .cls-1 {
        filter: url(#outer-glow-3);
      }

      .cls-1, .cls-2, .cls-3 {
        fill: #fff;
      }

      .cls-2 {
        filter: url(#outer-glow-1);
      }

      .cls-3 {
        filter: url(#outer-glow-2);
      }

      .cls-4 {
        fill: #000b28;
      }

      .cls-5 {
        fill: #fdd768;
      }

      .cls-6 {
        fill: #009ab7;
      }

      .cls-7 {
        fill: #deae98;
      }
    </style>
    <filter id="outer-glow-1" filterUnits="userSpaceOnUse">
      <feOffset dx="0" dy="0"/>
      <feGaussianBlur result="blur" stdDeviation="1.72"/>
      <feFlood flood-color="#fff" flood-opacity="1"/>
      <feComposite in2="blur" operator="in"/>
      <feComposite in="SourceGraphic"/>
    </filter>
    <filter id="outer-glow-2" filterUnits="userSpaceOnUse">
      <feOffset dx="0" dy="0"/>
      <feGaussianBlur result="blur-2" stdDeviation="1.72"/>
      <feFlood flood-color="#fff" flood-opacity="1"/>
      <feComposite in2="blur-2" operator="in"/>
      <feComposite in="SourceGraphic"/>
    </filter>
    <filter id="outer-glow-3" filterUnits="userSpaceOnUse">
      <feOffset dx="0" dy="0"/>
      <feGaussianBlur result="blur-3" stdDeviation="1.72"/>
      <feFlood flood-color="#fff" flood-opacity="1"/>
      <feComposite in2="blur-3" operator="in"/>
      <feComposite in="SourceGraphic"/>
    </filter>
  </defs>
  <g id="GUI">
    <g>
      <path class="cls-7" d="M145.33,91.12c-1.7,5.51-9.08,43.64-10.78,54.67-.63,4.1,.27,10.99,.46,14.75,.32,6.35,.36,8.78,.36,10.38,0,2.55,9.91,64.76,9.05,75.76-.42,5.38-42.55,13.01-47.21,10.46-4.66-2.54-14.42-2.12-17.81-4.24-3.39-2.13-9.33-75.62-9.75-76.89-.18-.55-.88-5.73-1.82-9.63-1.23-5.14-.02-7.27-2.62-10.29-2-2.32-14.21-16.11-15.48-24.17-1.27-8.06-7.05-16.3-10.14-17.69-5.14-2.31-7.87-5.95-14.16-6.91-3.43-.52-9.54-5.22-13.86-7.28C6.08,97.42-.28,92.28,0,89.8c.66-5.61,9.61-6.23,13.2-5.94,7.41,.6,22.22,6.59,28.27,11.22,4.83,3.7,17.02,12.33,20.24,8.55,2.64-3.09,2.64-43.86,2.64-43.86,1.27-7.21,1.98-35.31,1.98-35.31,0,0-.16-15.84,3.77-22.17,2.96-4.76,9.57-.92,10.96,.99,1.39,1.91,1.17,8.64,1.49,14.58,.24,4.36-.35,25.32-.78,28.71-.42,3.39,2.58,28.01,7.86,28.31,3.32,.18,3.31-8.9,3.95-11.24"/>
      <path class="cls-4" d="M146.68,76.72c-1.06-3.96-6.19-6.22-7.47-6.92-4.47-2.44-6.36,6.15-6.36,6.15-.61-4.94,1.42-10.78,.61-13.2-.69-2.06-7.13-7.8-11.66-5.06-3.39,2.05-5.72,7.49-5.72,7.49-.25-1.94-.32-12.28-.38-14.28-.15-4.97-10.63-4.73-13.14-3.97-2.66,.8-5.84,4.61-8.95,16.73-.6,2.34-2.5,10.95-3.95,11.24-.78,.16-3.93-3.68-3.87-8.51,.05-3.96-1.46-14.76-1.03-18.15,.31-2.48-1.34-16.8-1.57-24.89,.12-2.9-15.64-4.73-17.06-1.33-.79,1.9-.61,11.14-.71,15.34-.14,5.73,.23,15.22-1.04,22.43,0,0-1.53,27.37-2.81,36.41-.71,5.06,.37,7.18-11.6,2.33-8.47-3.43-11.11-8.27-24.85-12.57-3.11-.97-12.58,12.37-12.29,16.12,.05,.6,18.98,9.13,21.41,11.5,4.08,3.98,14.23,10.29,15.5,18.35,1.28,8.06,13.49,21.85,15.48,24.17,2.6,3.02,1.39,5.15,2.62,10.29,.94,3.9,1.64,9.09,1.82,9.63,.43,1.27,6.36,74.77,9.75,76.89,3.39,2.12,13.15,1.7,17.81,4.24,4.66,2.55,46.79-5.08,47.21-10.46,.86-10.99-9.05-73.21-9.05-75.76,0-1.6-.04-4.03-.36-10.38-.19-3.75-1.09-10.65-.46-14.75,1.7-11.02,10.78-54.67,10.78-54.67,0,0,2.15-11.42,1.35-14.41Z"/>
      <path class="cls-6" d="M139.2,69.79c0,12.54-2.95,16.81-4.22,19.35-1.27,2.55-1.33,2.76-1.97,.44,.44-7.48,2.62-16.47,.43-26.84-.98-5.57-12.27-9.26-11.66-5.06,1.76,12.1-2.87,20.3-4.98,26.29-1.3,3.68-4.25,4.24-4.25,1.27,2.03-13.32,3.07-29.1,3.07-36.36,0-4.06-12.71-5.79-13.08-1.97-1.76,18.23-4.22,24.44-7.79,32.38-2.15,4.79-5.11,1.49-7.23-1.05-2.12-2.55-4.76-35.64-5.73-48.11-.27-3.46-.48-6.74-6.72-6.81-4.94-.05-5.25,.95-6.09,5.31-2.25,11.7-1.4,31.07-2.49,43.62-.79,9.19-.5,35.48-4.66,40.96-2.18,2.87-9.98,4.3-16.94-.65-11.84-8.41-25.17-13.75-28.71-14.52-4.09-.89-4.62,3.28-4.62,3.28,.07,.83,6.92,4.76,8.57,5.67,9.48,5.25,17.91,10.9,28.4,26.27,4.85,7.11,8.3,15.3,14.12,21.56h.01c3.67,3.06,3.83,6.52,5.26,12.8,5.87,.23,18.93,3.15,22.75,7.79,3.03,3.68,9.77,15.61,13.59,17.19,5.22,2.19,17.54,.71,22.05-3.1,4.5-3.82,4.14-24.39,6.98-27.19,1.3-1.29,1.42-1.53,1.83-2.01,.03-.88-.03-1.92-.13-3.88-.95-20.52,5.77-40.77,11.67-66.85,0,0,1.19-10.92-.37-14.07-1.01-2.04-7.07-8.1-7.07-5.72Zm-20.66,58.41c-1.95,.03-1.95-3.02,0-3,1.94-.02,1.94,3.03,0,3Z"/>
      <path class="cls-2" d="M120.04,126.7c0,.83-.67,1.5-1.5,1.5s-1.5-.67-1.5-1.5,.67-1.5,1.5-1.5,1.5,.67,1.5,1.5Z"/>
      <path class="cls-3" d="M19.66,105.13c0,.83-.67,1.5-1.5,1.5s-1.5-.67-1.5-1.5,.67-1.5,1.5-1.5,1.5,.67,1.5,1.5Z"/>
      <circle class="cls-1" cx="74.92" cy="31.06" r="1.5"/>
      <g>
        <path class="cls-5" d="M91.94,241.68c-2.55,.35-5.09,.7-7.64,1.06-.1-.74-.21-1.47-.31-2.22,1.62-.93,3.24-1.86,4.9-2.81-1.85-.44-3.65-.86-5.46-1.29-.1-.78-.21-1.55-.32-2.33,2.54-.35,5.09-.7,7.64-1.06,.07,.55,.15,1.1,.23,1.66-1.66,.23-3.33,.46-5.01,.69v.03c1.77,.43,3.53,.86,5.29,1.28,.06,.46,.12,.91,.18,1.38-1.55,.89-3.12,1.77-4.68,2.65v.02c1.65-.23,3.29-.45,4.95-.68,.07,.55,.15,1.08,.22,1.62Z"/>
        <path class="cls-5" d="M90.12,228.36c-1.78,.24-3.56,.49-5.35,.73-.07-.51-.15-1.03-.22-1.55,.19-.02,.37-.05,.59-.08-.6-.34-.9-.86-.97-1.5-.08-.64,.07-1.21,.62-1.63-.07-.04-.12-.07-.18-.1-.61-.37-.86-.95-.91-1.63-.04-.47,.05-.92,.33-1.3,.28-.39,.66-.63,1.12-.72,.7-.13,1.41-.22,2.13-.32,.51-.07,1.03-.15,1.55-.21,.04,0,.09-.01,.14-.02,.07,.54,.15,1.05,.22,1.58-.06,0-.11,.01-.16,.02-.95,.13-1.9,.26-2.84,.4-.15,.02-.31,.05-.45,.11-.37,.17-.51,.49-.44,.97,.06,.37,.37,.66,.76,.7,.09,0,.18,0,.27,0,.98-.13,1.96-.27,2.94-.4,.05,0,.1-.01,.15-.02,.07,.54,.15,1.07,.23,1.62-.05,0-.1,.01-.15,.02-1.01,.14-2.02,.28-3.03,.42-.37,.05-.64,.29-.71,.62-.08,.38,.06,.77,.37,.97,.17,.11,.35,.17,.55,.14,.78-.1,1.57-.21,2.35-.31,.29-.04,.56-.08,.86-.12,.07,.54,.15,1.08,.23,1.63Z"/>
        <path class="cls-5" d="M86.95,205.32c-2.6,.35-5.2,.71-7.81,1.07-.07-.54-.15-1.08-.23-1.63,1.41-.2,2.81-.39,4.26-.59-.7-.48-1.36-.93-2.03-1.39-.1-.7-.19-1.39-.29-2.12,.86,.6,1.69,1.19,2.54,1.78,.94-.85,1.87-1.7,2.81-2.57,.1,.68,.18,1.33,.27,2-.56,.5-1.13,1-1.72,1.52,.22,.15,.42,.3,.65,.45,.43-.06,.87-.12,1.31-.18,.07,.54,.15,1.08,.23,1.63Z"/>
        <path class="cls-5" d="M87.92,214.68c-.36-.39-.81-.61-1.34-.69-.07,.47-.13,.93-.2,1.41,.73,.19,.92,.81,.84,1.37-.06,.51-.46,.94-.87,.96-.17-1.23-.34-2.47-.51-3.7-.4,0-.76,.05-1.12,.17-.78,.24-1.37,.7-1.66,1.5-.13,.37-.16,.75-.14,1.15,.06,.9,.44,1.64,1.21,2.12,1.1,.69,2.24,.62,3.31-.05,1.52-.97,1.51-3.14,.48-4.24Zm-3.7,2.13c-.06-.54,.29-1.02,.78-1.08,.1,.71,.2,1.41,.29,2.12-.54,.07-1-.38-1.07-1.04Z"/>
        <path class="cls-5" d="M87.68,211.46c-.21,.55-.63,.87-1.19,.97-.78,.14-1.56,.23-2.35,.34-.05,0-.1,.01-.18,.02,.04,.33,.09,.64,.13,.95-.48,.07-.95,.13-1.44,.2-.02-.15-.02-.29-.06-.43-.11-.39-.45-.61-.86-.56-.26,.04-.51,.07-.78,.11-.07-.49-.13-.97-.21-1.47,.52-.07,1.03-.14,1.56-.21-.05-.35-.1-.7-.15-1.04,.48-.07,.95-.13,1.43-.2,.04,.34,.1,.68,.14,1.03,.07,0,.11,0,.15-.01,.61-.08,1.22-.16,1.83-.25,.07,0,.12-.02,.18-.04,.27-.08,.4-.26,.36-.54-.02-.17-.07-.34-.1-.51,.43-.06,.88-.12,1.36-.19,.07,.21,.15,.42,.21,.64,.09,.4,.09,.81-.06,1.2Z"/>
        <path class="cls-5" d="M90.54,231.44c-1.79,.24-3.57,.49-5.36,.74-.07-.55-.15-1.08-.23-1.63,1.79-.24,3.58-.49,5.36-.73,.08,.54,.15,1.08,.23,1.62Z"/>
        <path class="cls-5" d="M87.37,208.4c-1.78,.24-3.56,.49-5.36,.73-.07-.54-.15-1.08-.22-1.62,1.79-.24,3.57-.49,5.36-.73,.07,.54,.15,1.08,.22,1.62Z"/>
        <path class="cls-5" d="M80.39,209.5c-.52,.07-1.02-.31-1.08-.82-.07-.53,.31-1.03,.83-1.1s1.02,.32,1.08,.84c.07,.52-.31,1-.83,1.08Z"/>
        <path class="cls-5" d="M83.55,232.55c-.51,.07-1-.31-1.08-.82-.07-.53,.32-1.03,.83-1.1,.52-.07,1.02,.32,1.09,.84,.07,.52-.32,1.01-.84,1.08Z"/>
      </g>
      <path class="cls-5" d="M112.98,243.7s-.02-.06-.03-.09c-.83-2.71-3.28-4.63-6.09-4.8-.04,0-.07,0-.11,0l-3.92-.16s-.02,0-.03,0c-1.44-.02-2.66,.5-3.56,1.49-.92,1.04-1.39,2.54-1.23,3.92l1.42,13.93s9.63,1.13,17.68-1.47l-4.14-12.8Zm-7.45,1.32c.24-.03,.45,.14,.49,.38l.32,2.63c.03,.25-.14,.46-.38,.49-.25,.03-.46-.14-.5-.38l-.32-2.62c-.03-.24,.14-.45,.39-.49Zm.77,6.34c-1.6,.2-3.05-.95-3.25-2.55-.11-.92,.22-1.86,.92-2.49,.06-.06,.15-.1,.25-.11,.14-.02,.28,.03,.37,.13,.16,.18,.15,.45-.02,.63-.49,.45-.72,1.08-.64,1.74,.14,1.12,1.16,1.91,2.27,1.78,1.12-.14,1.91-1.16,1.77-2.27-.08-.65-.45-1.22-1.04-1.53-.21-.12-.29-.38-.17-.6,.06-.12,.19-.21,.33-.22,.09,0,.19,.01,.27,.05,.81,.46,1.37,1.28,1.49,2.21,.19,1.59-.95,3.05-2.55,3.25Z"/>
    </g>
  </g>
</svg>