<?xml version="1.0" encoding="UTF-8"?>
<svg id="Layer_2" data-name="Layer 2" xmlns="http://www.w3.org/2000/svg" xmlns:xlink="http://www.w3.org/1999/xlink" viewBox="0 0 112.19 265.44">
  <defs>
    <style>
      .cls-1 {
        filter: url(#outer-glow-4);
      }

      .cls-1, .cls-2, .cls-3, .cls-4 {
        fill: #fff;
      }

      .cls-2 {
        filter: url(#outer-glow-3);
      }

      .cls-3 {
        filter: url(#outer-glow-1);
      }

      .cls-4 {
        filter: url(#outer-glow-2);
      }

      .cls-5 {
        fill: #000b28;
      }

      .cls-6 {
        fill: #fdd768;
      }

      .cls-7 {
        fill: #009ab7;
      }

      .cls-8 {
        fill: #deae98;
      }
    </style>
    <filter id="outer-glow-1" filterUnits="userSpaceOnUse">
      <feOffset dx="0" dy="0"/>
      <feGaussianBlur result="blur" stdDeviation="1.72"/>
      <feFlood flood-color="#fff" flood-opacity="1"/>
      <feComposite in2="blur" operator="in"/>
      <feComposite in="SourceGraphic"/>
    </filter>
    <filter id="outer-glow-2" filterUnits="userSpaceOnUse">
      <feOffset dx="0" dy="0"/>
      <feGaussianBlur result="blur-2" stdDeviation="1.72"/>
      <feFlood flood-color="#fff" flood-opacity="1"/>
      <feComposite in2="blur-2" operator="in"/>
      <feComposite in="SourceGraphic"/>
    </filter>
    <filter id="outer-glow-3" filterUnits="userSpaceOnUse">
      <feOffset dx="0" dy="0"/>
      <feGaussianBlur result="blur-3" stdDeviation="1.72"/>
      <feFlood flood-color="#fff" flood-opacity="1"/>
      <feComposite in2="blur-3" operator="in"/>
      <feComposite in="SourceGraphic"/>
    </filter>
    <filter id="outer-glow-4" filterUnits="userSpaceOnUse">
      <feOffset dx="0" dy="0"/>
      <feGaussianBlur result="blur-4" stdDeviation="1.72"/>
      <feFlood flood-color="#fff" flood-opacity="1"/>
      <feComposite in2="blur-4" operator="in"/>
      <feComposite in="SourceGraphic"/>
    </filter>
  </defs>
  <g id="GUI">
    <g>
      <path class="cls-8" d="M107.74,98.59c-1.7,5.51-8.65,43.4-10.35,54.43-.63,4.1,.27,10.99,.46,14.75,.32,6.35,.36,8.78,.36,10.38,0,2.55,9.91,64.76,9.05,75.76-.42,5.38-42.55,13.01-47.21,10.46-4.66-2.54-14.42-2.12-17.81-4.24-3.39-2.13-9.33-75.62-9.75-76.89-.18-.55-.88-5.73-1.82-9.63-1.23-5.14-.02-7.27-2.62-10.29-2-2.32-14.21-16.11-15.48-24.17-1.27-8.06,2.55-10.57,3.74-16.14,1.17-5.51,4.39-12.62,7.61-16.4,2.64-3.09,3.3-39.6,3.3-39.6,1.27-7.21,1.98-35.31,1.98-35.31,0,0-.16-15.84,3.77-22.17,2.96-4.76,9.57-.92,10.96,.99,1.39,1.91,1.17,8.64,1.49,14.58,.24,4.36-.35,25.32-.78,28.71-.42,3.39,3.99,27.39,7.86,28.31,.78,.18,3.31-8.9,3.95-11.24s3.72-15.37,4.34-20.14c1.06-8.21,1.44-16.92,2.08-19.46,.64-2.54,2.31-28.05,6.14-30.28,3.14-1.83,8.07-1.07,9.77,1.9,1.7,2.97,.75,27.7,.75,27.7,0,0-5.45,54.19-5.2,56.12l-2.61,12.54"/>
      <path class="cls-5" d="M77.32,69.22c2.65-3.3,6.9-8.45,9.96-8.13,2.86,.3,7.59,2.85,9.57,8.79,1.98,5.94-.66,8.26,1.32,8.58,1.98,.32,2.97-9.57,9.57-3.3,3.87,3.67,2.69,19.64,2.69,19.64-1.7,5.51-11.34,47.2-13.04,58.22-.63,4.1,.27,10.99,.46,14.75,.32,6.35,.36,8.78,.36,10.38,0,2.55,9.91,64.76,9.05,75.76-.42,5.38-42.55,13.01-47.21,10.46-4.66-2.54-14.42-2.12-17.81-4.24-3.39-2.13-9.33-75.62-9.75-76.89-.18-.55-.88-5.73-1.82-9.63-1.23-5.14-.02-7.27-2.62-10.29-2-2.32-14.21-16.11-15.48-24.17-1.27-8.06-2.72-11.03-5.43-17.75-1.47-3.64-6.64-14.59-6.7-18.51-.12-7.59,8.13-10.52,11.22-11.55,7.92-2.64,14.49-6.96,14.49-6.96l1.07-17.38c1.27-7.21,.9-16.71,1.04-22.43,.1-4.2-.08-13.44,.71-15.34,1.42-3.4,18.22-1.1,18.1,1.8-.34,7.84,.85,21.94,.54,24.42-.42,3.39,1.09,14.19,1.03,18.15-.07,4.82,3.08,8.66,3.87,8.51,1.45-.29,3.31-8.9,3.95-11.24s2.08-14.74,2.79-20.13c.99-7.52,3.98-25.07,4.61-27.61,.64-2.54,15.71-4.42,15.86,.55,.06,2.01,.17,14.61,.17,14.61,0,0-4.31,47.14-4.07,49.08"/>
      <path class="cls-7" d="M105.1,74.5c1.32,4.95-5.61,19.8-6.93,17.16-1.32-2.64,.47-17.12,.14-22.07s-8.39-11.22-11.03-10.23c-2.64,.99-.32,8.69-1.65,14.15-1.19,4.86-1.9,8.44-4.25,14.52-1.41,3.64-4.25,4.24-4.25,1.27-1.73-7.21-.2-15.78,.18-28,.55-17.24,1.35-24.54-.11-32.9-.52-3.01-10.17-3.41-11.45-.87-1.27,2.54-3.33,19.6-3.75,23.42-.43,3.81-3.15,30.5-4.42,35.58-1.28,5.09-5.11,1.49-7.23-1.05-2.12-2.55-4.76-35.64-5.73-48.11-.27-3.46-.48-6.74-6.72-6.81-4.94-.05-5.25,.95-6.09,5.31-2.25,11.7-1.4,31.07-2.49,43.62-.79,9.19-.5,35.48-4.66,40.96-2.18,2.87-5.89,7.18-10.02-1.07-5-9.98-13.01-21.66-2.56-25.53,8.91-3.3,13.42-7,11.82-7.35-4.09-.89-9.26,4.37-20.79,7.92-.8,.25-4.54,3.18-2.56,11.76,2.21,9.6,6.18,20.23,10.8,34.32,2.69,8.18,8.3,15.3,14.12,21.56h.01c3.67,3.06,3.83,6.52,5.26,12.8,5.87,.23,18.93,3.15,22.75,7.79,3.03,3.68,9.77,15.61,13.59,17.19,5.22,2.19,17.54,.71,22.05-3.1,4.5-3.82,4.14-24.39,6.98-27.19,1.3-1.29,1.42-1.53,1.83-2.01,.03-.88-.03-1.92-.13-3.88-.95-20.52,8.24-49.36,14.14-75.44,.6-3.16-.17-6.62-.39-9.76s-7.8-8.91-6.48-3.96Zm-23.71,60.93c-1.95,.03-1.95-3.02,0-3,1.94-.02,1.94,3.03,0,3Z"/>
      <path class="cls-3" d="M82.88,133.93c0,.83-.67,1.5-1.5,1.5s-1.5-.67-1.5-1.5,.67-1.5,1.5-1.5,1.5,.67,1.5,1.5Z"/>
      <path class="cls-4" d="M17.49,89.26c0,.83-.67,1.5-1.5,1.5s-1.5-.67-1.5-1.5,.67-1.5,1.5-1.5,1.5,.67,1.5,1.5Z"/>
      <path class="cls-2" d="M71.9,32.87c0,.83-.66,1.5-1.5,1.5s-1.5-.67-1.5-1.5,.67-1.5,1.5-1.5,1.5,.67,1.5,1.5Z"/>
      <circle class="cls-1" cx="37.77" cy="38.29" r="1.5"/>
      <g>
        <path class="cls-6" d="M54.79,248.9c-2.55,.35-5.09,.7-7.64,1.06-.1-.74-.21-1.47-.31-2.22,1.62-.93,3.24-1.86,4.9-2.81-1.85-.44-3.65-.86-5.46-1.29-.1-.78-.21-1.55-.32-2.33,2.54-.35,5.09-.7,7.64-1.06,.07,.55,.15,1.1,.23,1.66-1.66,.23-3.33,.46-5.01,.69v.03c1.77,.43,3.53,.86,5.29,1.28,.06,.46,.12,.91,.18,1.38-1.55,.89-3.12,1.77-4.68,2.65v.02c1.65-.23,3.29-.45,4.95-.68,.07,.55,.15,1.08,.22,1.62Z"/>
        <path class="cls-6" d="M52.96,235.59c-1.78,.24-3.56,.49-5.35,.73-.07-.51-.15-1.03-.22-1.55,.19-.02,.37-.05,.59-.08-.6-.34-.9-.86-.97-1.5-.08-.64,.07-1.21,.62-1.63-.07-.04-.12-.07-.18-.1-.61-.37-.86-.95-.91-1.63-.04-.47,.05-.92,.33-1.3,.28-.39,.66-.63,1.12-.72,.7-.13,1.41-.22,2.13-.32,.51-.07,1.03-.15,1.55-.21,.04,0,.09-.01,.14-.02,.07,.54,.15,1.05,.22,1.58-.06,0-.11,.01-.16,.02-.95,.13-1.9,.26-2.84,.4-.15,.02-.31,.05-.45,.11-.37,.17-.51,.49-.44,.97,.06,.37,.37,.66,.76,.7,.09,0,.18,0,.27,0,.98-.13,1.96-.27,2.94-.4,.05,0,.1-.01,.15-.02,.07,.54,.15,1.07,.23,1.62-.05,0-.1,.01-.15,.02-1.01,.14-2.02,.28-3.03,.42-.37,.05-.64,.29-.71,.62-.08,.38,.06,.77,.37,.97,.17,.11,.35,.17,.55,.14,.78-.1,1.57-.21,2.35-.31,.29-.04,.56-.08,.86-.12,.07,.54,.15,1.08,.23,1.63Z"/>
        <path class="cls-6" d="M49.8,212.54c-2.6,.35-5.2,.71-7.81,1.07-.07-.54-.15-1.08-.23-1.63,1.41-.2,2.81-.39,4.26-.59-.7-.48-1.36-.93-2.03-1.39-.1-.7-.19-1.39-.29-2.12,.86,.6,1.69,1.19,2.54,1.78,.94-.85,1.87-1.7,2.81-2.57,.1,.68,.18,1.33,.27,2-.56,.5-1.13,1-1.72,1.52,.22,.15,.42,.3,.65,.45,.43-.06,.87-.12,1.31-.18,.07,.54,.15,1.08,.23,1.63Z"/>
        <path class="cls-6" d="M50.77,221.9c-.36-.39-.81-.61-1.34-.69-.07,.47-.13,.93-.2,1.41,.73,.19,.92,.81,.84,1.37-.06,.51-.46,.94-.87,.96-.17-1.23-.34-2.47-.51-3.7-.4,0-.76,.05-1.12,.17-.78,.24-1.37,.7-1.66,1.5-.13,.37-.16,.75-.14,1.15,.06,.9,.44,1.64,1.21,2.12,1.1,.69,2.24,.62,3.31-.05,1.52-.97,1.51-3.14,.48-4.24Zm-3.7,2.13c-.06-.54,.29-1.02,.78-1.08,.1,.71,.2,1.41,.29,2.12-.54,.07-1-.38-1.07-1.04Z"/>
        <path class="cls-6" d="M50.52,218.69c-.21,.55-.63,.87-1.19,.97-.78,.14-1.56,.23-2.35,.34-.05,0-.1,.01-.18,.02,.04,.33,.09,.64,.13,.95-.48,.07-.95,.13-1.44,.2-.02-.15-.02-.29-.06-.43-.11-.39-.45-.61-.86-.56-.26,.04-.51,.07-.78,.11-.07-.49-.13-.97-.21-1.47,.52-.07,1.03-.14,1.56-.21-.05-.35-.1-.7-.15-1.04,.48-.07,.95-.13,1.43-.2,.04,.34,.1,.68,.14,1.03,.07,0,.11,0,.15-.01,.61-.08,1.22-.16,1.83-.25,.07,0,.12-.02,.18-.04,.27-.08,.4-.26,.36-.54-.02-.17-.07-.34-.1-.51,.43-.06,.88-.12,1.36-.19,.07,.21,.15,.42,.21,.64,.09,.4,.09,.81-.06,1.2Z"/>
        <path class="cls-6" d="M53.39,238.67c-1.79,.24-3.57,.49-5.36,.74-.07-.55-.15-1.08-.23-1.63,1.79-.24,3.58-.49,5.36-.73,.08,.54,.15,1.08,.23,1.62Z"/>
        <path class="cls-6" d="M50.22,215.62c-1.78,.24-3.56,.49-5.36,.73-.07-.54-.15-1.08-.22-1.62,1.79-.24,3.57-.49,5.36-.73,.07,.54,.15,1.08,.22,1.62Z"/>
        <path class="cls-6" d="M43.24,216.73c-.52,.07-1.02-.31-1.08-.82-.07-.53,.31-1.03,.83-1.1s1.02,.32,1.08,.84c.07,.52-.31,1-.83,1.08Z"/>
        <path class="cls-6" d="M46.4,239.77c-.51,.07-1-.31-1.08-.82-.07-.53,.32-1.03,.83-1.1,.52-.07,1.02,.32,1.09,.84,.07,.52-.32,1.01-.84,1.08Z"/>
      </g>
      <path class="cls-6" d="M75.83,250.93s-.02-.06-.03-.09c-.83-2.71-3.28-4.63-6.09-4.8-.04,0-.07,0-.11,0l-3.92-.16s-.02,0-.03,0c-1.44-.02-2.66,.5-3.56,1.49-.92,1.04-1.39,2.54-1.23,3.92l1.42,13.93s9.63,1.13,17.68-1.47l-4.14-12.8Zm-7.45,1.32c.24-.03,.45,.14,.49,.38l.32,2.63c.03,.25-.14,.46-.38,.49-.25,.03-.46-.14-.5-.38l-.32-2.62c-.03-.24,.14-.45,.39-.49Zm.77,6.34c-1.6,.2-3.05-.95-3.25-2.55-.11-.92,.22-1.86,.92-2.49,.06-.06,.15-.1,.25-.11,.14-.02,.28,.03,.37,.13,.16,.18,.15,.45-.02,.63-.49,.45-.72,1.08-.64,1.74,.14,1.12,1.16,1.91,2.27,1.78,1.12-.14,1.91-1.16,1.77-2.27-.08-.65-.45-1.22-1.04-1.53-.21-.12-.29-.38-.17-.6,.06-.12,.19-.21,.33-.22,.09,0,.19,.01,.27,.05,.81,.46,1.37,1.28,1.49,2.21,.19,1.59-.95,3.05-2.55,3.25Z"/>
    </g>
  </g>
</svg>