<?xml version="1.0" encoding="UTF-8"?>
<svg id="Layer_2" data-name="Layer 2" xmlns="http://www.w3.org/2000/svg" viewBox="0 0 63.9 63.9">
  <defs>
    <style>
      .cls-1 {
        fill: #fff;
        opacity: .12;
      }

      .cls-2 {
        fill: #f2f2f2;
      }

      .cls-3 {
        fill: none;
        stroke: #f2f2f2;
        stroke-miterlimit: 10;
        stroke-width: 1.8px;
      }

      .cls-4 {
        opacity: .15;
      }

      .cls-5 {
        opacity: .14;
      }
    </style>
  </defs>
  <g id="GUI">
    <g>
      <rect class="cls-1" width="63.9" height="63.9" rx="17.15" ry="17.15"/>
      <g>
        <g class="cls-5">
          <path class="cls-2" d="M40.2,33.21l-1.75,1.56c-1.61-1.71-3.87-2.69-6.22-2.69s-4.62,.97-6.23,2.69l-1.75-1.56c2.06-2.21,4.95-3.46,7.98-3.46s5.91,1.25,7.97,3.46Z"/>
        </g>
        <g class="cls-4">
          <path class="cls-2" d="M44.97,28.93l-1.75,1.56c-2.83-3.07-6.82-4.82-10.99-4.82s-8.17,1.75-11,4.82l-1.75-1.56c3.28-3.55,7.91-5.59,12.75-5.59s9.46,2.04,12.74,5.59Z"/>
        </g>
        <g class="cls-5">
          <path class="cls-2" d="M35.43,37.49h0s-3.19,2.87-3.19,2.87l-3.2-2.86h0c.84-.87,2-1.35,3.21-1.35s2.36,.49,3.2,1.34Z"/>
        </g>
      </g>
      <g>
        <line class="cls-3" x1="37.77" y1="40.37" x2="45.13" y2="47.73"/>
        <line class="cls-3" x1="45.02" y1="40.36" x2="37.66" y2="47.72"/>
      </g>
    </g>
  </g>
</svg>