<?xml version="1.0" encoding="UTF-8"?>
<svg id="Layer_2" data-name="Layer 2" xmlns="http://www.w3.org/2000/svg" viewBox="0 0 126.74 176.64">
  <defs>
    <style>
      .cls-1 {
        fill: none;
        stroke: #324555;
        stroke-linejoin: round;
        stroke-width: 8px;
      }
    </style>
  </defs>
  <g id="GUI">
    <path class="cls-1" d="M27.51,172.64s-7.87-20.51-14.5-32.5c-5.08-9.2-8.78-13.93-9-25-.37-19.1,6.5-28.5,7.5-44.5s.14-25.11,3.5-29.5c4.19-5.47,14.96-2.4,16.5,4.5,7.5,33.5-.5,45.9-1.5,48.5S74.18,16.14,78.51,9.64c4-6,11-7,15-4s5,11,3,14-29.5,52.5-29.5,52.5c0,0,7-13,10-17,1.97-2.63,8-4,13-2,4.64,1.86,7,10,4,15-1.86,3.09-9.5,15.5-9.5,15.5,0,0,3.5-7.5,7.5-12.5,2.38-2.97,8-5,13.5-1.5,4.22,2.68,5,8,4,11s-9.5,17.5-9.5,17.5c0,0,3-5,5-9,1.63-3.26,8.21-2.9,12-1,4,2,6.5,7.5,5.5,11.5s-15,47-21,55-17.13,18-17.13,18H27.51Z"/>
  </g>
</svg>